<?xml version="1.0" encoding="UTF-8"?>
<svg xmlns="http://www.w3.org/2000/svg" viewBox="0 0 64 64" width="512" height="512"><g id="Outline"><path d="M34.786,53.677l-6.134.8a8.007,8.007,0,0,0-6.393,4.961l-.476,1.19a1,1,0,0,0,1.858.742l.475-1.189a6,6,0,0,1,4.794-3.721l6.134-.8a1,1,0,0,0-.258-1.984Z"/><path d="M60.61,36.021l.592-.754a3.73,3.73,0,0,0-5.349-5.148l-3.41,2.9c-.06-.1-.119-.2-.189-.294a3.731,3.731,0,0,0-5.4-.6L45.23,33.5l0,0a3.73,3.73,0,0,0-5.357-.642l-3.506,2.887a1,1,0,0,0,1.272,1.544L41.142,34.4a1.721,1.721,0,0,1,1.3-.383,1.746,1.746,0,0,1,1.206.716c.017.022.021.055.037.078l-5.625,4.781a3.726,3.726,0,0,0-2-.587H29.348a17.74,17.74,0,0,0-8.617,1.976l-2.093,1.108A35.812,35.812,0,0,0,2.069,60.635a1,1,0,1,0,1.862.73A33.81,33.81,0,0,1,19.573,43.852l2.094-1.109A15.825,15.825,0,0,1,29.348,41h6.721A1.6,1.6,0,0,1,37.7,42.342,1.5,1.5,0,0,1,36.212,44h-8.5a1,1,0,0,0,0,2h19a1,1,0,0,0,.641-.232l9.8-8.165a1.78,1.78,0,0,1,1.7-.336l.013,0a1.434,1.434,0,0,1,.488.29,1.608,1.608,0,0,1,.531,1.159,1.587,1.587,0,0,1-.47,1.17l-9.276,9.277A12.058,12.058,0,0,1,43.2,52.58l-4.442.58a1,1,0,0,0,.258,1.983l4.442-.58a14.066,14.066,0,0,0,8.089-3.982l9.276-9.276a3.6,3.6,0,0,0-.124-5.218C60.67,36.062,60.638,36.045,60.61,36.021Zm-4.74.045L46.35,44H39.373a3.516,3.516,0,0,0,.321-1.858,3.249,3.249,0,0,0-.3-1.055l8.758-7.445a1.732,1.732,0,0,1,2.506.28,1.638,1.638,0,0,1,.228.422l-7.528,6.4a1,1,0,1,0,1.294,1.524l12.5-10.625a1.732,1.732,0,0,1,2.506.28,1.735,1.735,0,0,1-.023,2.109L58.7,35.21A3.792,3.792,0,0,0,55.87,36.066Z"/><path d="M13,30h4.649l9.726,7.781A1,1,0,0,0,29,37V30H43a5.006,5.006,0,0,0,5-5V18a1,1,0,0,0-2,0v7a3,3,0,0,1-3,3H28a1,1,0,0,0-1,1v5.919l-8.375-6.7A1,1,0,0,0,18,28H13a3,3,0,0,1-3-3V13a1,1,0,0,0-2,0V25A5.006,5.006,0,0,0,13,30Z"/><path d="M9,10a1,1,0,0,0,1-1V7a3,3,0,0,1,3-3H43a3,3,0,0,1,3,3v7a1,1,0,0,0,2,0V7a5.006,5.006,0,0,0-5-5H13A5.006,5.006,0,0,0,8,7V9A1,1,0,0,0,9,10Z"/><path d="M19,6a6.006,6.006,0,0,0-6,6,5.894,5.894,0,0,0,1.222,3.6A2.979,2.979,0,0,0,15,20.816V21a4,4,0,0,0,8,0v-.184a2.979,2.979,0,0,0,.778-5.219A5.894,5.894,0,0,0,25,12,6.006,6.006,0,0,0,19,6Zm0,2a4,4,0,0,1,4,4,3.936,3.936,0,0,1-1.414,3H20V13.414l.707-.707a1,1,0,0,0-1.414-1.414L19,11.586l-.293-.293a1,1,0,0,0-1.414,1.414l.707.707V15H16.414A3.936,3.936,0,0,1,15,12,4,4,0,0,1,19,8Zm0,15a2,2,0,0,1-2-2h4A2,2,0,0,1,19,23Zm3-4H16a1,1,0,0,1,0-2h6a1,1,0,0,1,0,2Z"/><path d="M42,9H31a1,1,0,0,0,0,2H42a1,1,0,0,0,0-2Z"/><path d="M43,14a1,1,0,0,0-1-1H28a1,1,0,0,0,0,2H42A1,1,0,0,0,43,14Z"/><path d="M41,18a1,1,0,0,0-1-1H28a1,1,0,0,0,0,2H40A1,1,0,0,0,41,18Z"/><path d="M28,21a1,1,0,0,0,0,2h8a1,1,0,0,0,0-2Z"/></g></svg>
