<svg height="512pt" viewBox="0 -8 512 512" width="512pt" xmlns="http://www.w3.org/2000/svg"><path d="m484.5 57h-254.5v-9.5c0-26.191406-21.308594-47.5-47.5-47.5h-135c-26.191406 0-47.5 21.308594-47.5 47.5v135c0 26.191406 21.308594 47.5 47.5 47.5h32.5v148.5c0 15.164062 12.335938 27.5 27.5 27.5h119.148438l-7.5 45h-13.648438c-12.40625 0-22.5 10.09375-22.5 22.5s10.09375 22.5 22.5 22.5h121.5c4.144531 0 7.5-3.359375 7.5-7.5s-3.355469-7.5-7.5-7.5h-121.5c-4.136719 0-7.5-3.363281-7.5-7.5s3.363281-7.5 7.5-7.5h181c4.136719 0 7.5 3.363281 7.5 7.5s-3.363281 7.5-7.5 7.5h-24.5c-4.144531 0-7.5 3.359375-7.5 7.5s3.355469 7.5 7.5 7.5h24.5c12.40625 0 22.5-10.09375 22.5-22.5s-10.09375-22.5-22.5-22.5h-13.648438l-7.5-45h119.148438c15.164062 0 27.5-12.335938 27.5-27.5v-294c0-15.164062-12.335938-27.5-27.5-27.5zm-17.5 60h-209.5c-4.144531 0-7.5 3.359375-7.5 7.5s3.355469 7.5 7.5 7.5h209.5v174h-287v-76h2.5c26.191406 0 47.5-21.308594 47.5-47.5v-80.5h237zm-342 113h40v76h-40zm-110-47.5v-135c0-17.921875 14.578125-32.5 32.5-32.5h135c17.921875 0 32.5 14.578125 32.5 32.5v135c0 17.921875-14.578125 32.5-32.5 32.5h-135c-17.921875 0-32.5-14.578125-32.5-32.5zm95 47.5v78.5c0 6.894531 5.605469 12.5 12.5 12.5h347c6.894531 0 12.5-5.605469 12.5-12.5v-209c0-6.894531-5.605469-12.5-12.5-12.5h-239.5v-15h254.5c6.894531 0 12.5 5.605469 12.5 12.5v251.5h-402v-106zm247.648438 221h-123.296876l7.5-45h108.296876zm139.351562-72.5c0 6.894531-5.605469 12.5-12.5 12.5h-377c-6.894531 0-12.5-5.605469-12.5-12.5v-27.5h402zm0 0"/><path d="m281 182h72c4.144531 0 7.5-3.359375 7.5-7.5s-3.355469-7.5-7.5-7.5h-72c-4.144531 0-7.5 3.359375-7.5 7.5s3.355469 7.5 7.5 7.5zm0 0"/><path d="m383 182h37c4.144531 0 7.5-3.359375 7.5-7.5s-3.355469-7.5-7.5-7.5h-37c-4.144531 0-7.5 3.359375-7.5 7.5s3.355469 7.5 7.5 7.5zm0 0"/><path d="m353 197h-30c-4.144531 0-7.5 3.359375-7.5 7.5s3.355469 7.5 7.5 7.5h30c4.144531 0 7.5-3.359375 7.5-7.5s-3.355469-7.5-7.5-7.5zm0 0"/><path d="m383 212h37c4.144531 0 7.5-3.359375 7.5-7.5s-3.355469-7.5-7.5-7.5h-37c-4.144531 0-7.5 3.359375-7.5 7.5s3.355469 7.5 7.5 7.5zm0 0"/><path d="m353 227h-30c-4.144531 0-7.5 3.359375-7.5 7.5s3.355469 7.5 7.5 7.5h30c4.144531 0 7.5-3.359375 7.5-7.5s-3.355469-7.5-7.5-7.5zm0 0"/><path d="m383 242h37c4.144531 0 7.5-3.359375 7.5-7.5s-3.355469-7.5-7.5-7.5h-37c-4.144531 0-7.5 3.359375-7.5 7.5s3.355469 7.5 7.5 7.5zm0 0"/><path d="m281 272h72c4.144531 0 7.5-3.359375 7.5-7.5s-3.355469-7.5-7.5-7.5h-72c-4.144531 0-7.5 3.359375-7.5 7.5s3.355469 7.5 7.5 7.5zm0 0"/><path d="m383 272h37c4.144531 0 7.5-3.359375 7.5-7.5s-3.355469-7.5-7.5-7.5h-37c-4.144531 0-7.5 3.359375-7.5 7.5s3.355469 7.5 7.5 7.5zm0 0"/><path d="m92.996094 173.839844c2.675781 1 4.476562 3.574218 4.476562 6.402344v1.527343c0 7.292969 5.933594 13.230469 13.226563 13.230469h8.601562c7.292969 0 13.226563-5.9375 13.226563-13.230469v-1.527343c0-2.828126 1.800781-5.402344 4.476562-6.402344 1.347656-.503906 2.6875-1.0625 3.980469-1.648438 2.675781-1.21875 5.71875-.695312 7.753906 1.339844l1.078125 1.074219c2.5 2.5 5.820313 3.878906 9.355469 3.878906s6.855469-1.378906 9.355469-3.875l6.078125-6.082031c2.5-2.496094 3.875-5.820313 3.875-9.355469 0-3.53125-1.375-6.855469-3.875-9.355469l-1.078125-1.078125c-2.03125-2.03125-2.558594-5.078125-1.335938-7.757812.59375-1.308594 1.148438-2.644531 1.644532-3.976563 1.003906-2.675781 3.574218-4.472656 6.40625-4.472656h1.523437c7.296875 0 13.230469-5.9375 13.230469-13.230469v-8.597656c0-7.296875-5.933594-13.230469-13.230469-13.230469h-1.523437c-2.832032 0-5.402344-1.796875-6.40625-4.472656-.496094-1.335938-1.050782-2.671875-1.648438-3.984375-1.21875-2.679687-.691406-5.722656 1.339844-7.753906l1.078125-1.078125c2.5-2.5 3.875-5.824219 3.875-9.355469 0-3.535156-1.375-6.859375-3.875-9.355469l-6.078125-6.078125c-2.5-2.5-5.820313-3.875-9.355469-3.875s-6.855469 1.375-9.355469 3.875l-1.078125 1.078125c-2.03125 2.03125-5.078125 2.554688-7.753906 1.339844-1.292969-.589844-2.632813-1.148438-3.980469-1.652344-2.675781-1-4.476562-3.574218-4.476562-6.402344v-1.527343c0-7.292969-5.933594-13.230469-13.226563-13.230469h-8.601562c-7.292969 0-13.226563 5.9375-13.226563 13.230469v1.527343c0 2.828126-1.800781 5.402344-4.476562 6.402344-1.347656.503906-2.6875 1.0625-3.980469 1.648438-2.675781 1.21875-5.722656.695312-7.753906-1.339844l-1.078125-1.074219c-2.5-2.5-5.820313-3.878906-9.355469-3.878906s-6.855469 1.378906-9.355469 3.875l-6.078125 6.082031c-2.5 2.496094-3.875 5.820313-3.875 9.355469 0 3.53125 1.375 6.855469 3.875 9.355469l1.078125 1.078125c2.03125 2.03125 2.558594 5.078125 1.335938 7.757812-.59375 1.308594-1.148438 2.644531-1.644532 3.976563-1.003906 2.675781-3.574218 4.472656-6.40625 4.472656h-1.523437c-7.296875 0-13.230469 5.9375-13.230469 13.230469v8.597656c0 7.296875 5.933594 13.230469 13.230469 13.230469h1.523437c2.832032 0 5.402344 1.796875 6.40625 4.472656.496094 1.335938 1.050782 2.671875 1.648438 3.984375 1.21875 2.679687.691406 5.722656-1.339844 7.753906l-1.078125 1.078125c-2.5 2.5-3.875 5.824219-3.875 9.355469 0 3.535156 1.375 6.859375 3.875 9.355469l6.078125 6.078125c2.5 2.5 5.820313 3.875 9.355469 3.875s6.855469-1.375 9.355469-3.875l1.078125-1.078125c2.03125-2.03125 5.074219-2.554688 7.753906-1.339844 1.292969.589844 2.632813 1.148438 3.980469 1.652344zm-22.167969-11.085938-3.582031-3.582031c6.261718-6.402344 7.960937-16.175781 4.21875-24.398437-.453125-.996094-.875-2.011719-1.253906-3.027344-3.152344-8.425782-11.257813-14.113282-20.210938-14.214844v-5.0625c8.953125-.101562 17.058594-5.789062 20.210938-14.214844.378906-1.015625.800781-2.03125 1.25-3.023437 3.742187-8.226563 2.046874-18-4.214844-24.402344l3.582031-3.582031c6.402344 6.261718 16.179687 7.957031 24.402344 4.214844.984375-.449219 2-.871094 3.023437-1.25 8.425782-3.15625 14.113282-11.257813 14.214844-20.210938h5.0625c.101562 8.957031 5.785156 17.058594 14.210938 20.207031 1.023437.386719 2.042968.808594 3.027343 1.253907 8.222657 3.742187 18 2.046874 24.402344-4.214844l3.578125 3.582031c-6.261719 6.402344-7.957031 16.175781-4.214844 24.394531.453125 1 .875 2.015625 1.253906 3.03125 3.152344 8.425782 11.253907 14.113282 20.210938 14.214844v5.0625c-8.957031.101562-17.058594 5.789062-20.210938 14.214844-.378906 1.011718-.800781 2.03125-1.253906 3.023437-3.742187 8.222657-2.046875 17.996094 4.214844 24.402344l-3.578125 3.582031c-6.40625-6.261718-16.179687-7.960937-24.402344-4.214844-.984375.445313-2.003906.867188-3.023437 1.25-8.429688 3.152344-14.113282 11.253907-14.214844 20.210938h-5.0625c-.101562-8.957031-5.789062-17.058594-14.210938-20.210938-1.027343-.382812-2.042968-.804687-3.03125-1.253906-8.21875-3.738281-17.996093-2.042968-24.398437 4.21875zm0 0"/><path d="m147 115c0-17.644531-14.355469-32-32-32s-32 14.355469-32 32 14.355469 32 32 32 32-14.355469 32-32zm-49 0c0-9.375 7.625-17 17-17s17 7.625 17 17-7.625 17-17 17-17-7.625-17-17zm0 0"/></svg>